<svg xmlns="http://www.w3.org/2000/svg" width="1024" height="1024"><path fill-rule="evenodd" d="M371.355 284.039c-25.078 4.964-35.436 35.607-17.984 53.202 2.869 2.892 6.277 5.96 7.573 6.816l2.357 1.557-2.132 16.943c-3.711 29.485-4.469 40.348-3.803 54.443 1.34 28.334 7.903 55.382 18.697 77.053 17.331 34.797 52.022 63.654 88.437 73.563 9.554 2.599 11.279 2.74 38.649 3.145 31.71.469 46.718-.74 63.893-5.147 51.31-13.166 91.732-58.099 100.41-111.614 3.022-18.641 1.315-46.184-4.007-64.635-6.553-22.718-21.788-46.901-40.158-63.745-29.426-26.98-62.915-40.47-102.287-41.203-21.264-.396-36.857 2.068-54.232 8.568-6.513 2.438-8.768 5.917-8.768 13.534 0 4.145.47 5.186 3.882 8.599 2.136 2.135 4.723 3.882 5.75 3.882s6.191-1.546 11.475-3.435c5.284-1.888 13.321-4.138 17.861-4.999 10.538-1.999 31.64-2.027 43.784-.057 50.36 8.167 92.888 47.533 102.744 95.102 6.462 31.187-.456 65.656-18.579 92.563-5.448 8.089-18.688 21.759-26.417 27.276-3.3 2.356-9.375 5.98-13.5 8.055C562.903 544.619 544.016 548 504.022 548c-19.917 0-22.602-.212-31.613-2.498-41.956-10.643-72.055-39.197-85.383-81.002-7.023-22.029-9.524-40.067-8.666-62.5.566-14.788 4.646-53.533 5.716-54.282.233-.164 2.805-1.377 5.715-2.698 6.289-2.853 13.418-10.123 16.436-16.761 3.115-6.851 3.096-18.891-.04-25.759-2.644-5.791-9.134-12.862-14.219-15.491-2.976-1.54-14.056-4.256-15.902-3.899-.311.06-2.431.478-4.711.929m131.88 54.481c-3.737 1.898-5.985 3.903-7.75 6.915-2.485 4.24-2.485 4.244-2.485 31.903 0 15.214-.337 27.664-.75 27.666-.413.003-11.584.115-24.825.25l-24.075.246-4.264 2.823c-9.07 6.005-11.697 19.648-5.303 27.547 6.295 7.778 5.531 7.596 33.24 7.929l24.881.298.298 25.202.298 25.201 2.737 4c5.156 7.537 13.121 10.781 22.26 9.067 3.973-.746 10.801-6.309 13.028-10.615 1.352-2.615 2.205-17.944 2.4-43.152l.075-9.701 24.326-.299c23.885-.295 24.391-.344 27.869-2.73 13.227-9.07 9.57-30.709-5.918-35.01-2.1-.583-13.45-1.051-25.57-1.054L531.913 405l.488-24.708c.286-14.441.08-26.613-.494-29.291-1.741-8.115-8.75-13.927-17.7-14.676-4.79-.401-6.553-.048-10.972 2.195M811.11 595.396c-7.848 4.349-5.86 17.204 2.933 18.963 6.186 1.237 12.957-4.125 12.957-10.262 0-7.663-8.936-12.556-15.89-8.701m-576.99 35.183c-26.44 7.111-43.725 31.639-41.71 59.188 2.191 29.969 25.113 51.407 55.09 51.523 13.662.053 24.522-3.706 35.286-12.215 8.4-6.64 10.074-12.332 5.013-17.047-3.528-3.288-7.864-2.629-13.44 2.041-11.003 9.215-22.821 12.399-35.446 9.548-19.97-4.51-32.083-22.331-29.19-42.947 1.994-14.211 9.798-25.195 21.975-30.93 6.001-2.826 7.803-3.202 15.302-3.19 4.675.008 10.3.559 12.5 1.226 4.215 1.277 12.124 5.724 16.754 9.421 5.466 4.365 14.755 1.138 14.739-5.121-.02-7.789-16.087-19.249-30.936-22.065-7.45-1.413-19.559-1.148-25.937.568m266.38.3c-6.56 1.898-12.162 5.12-17.356 9.98-1.845 1.728-3.533 3.141-3.75 3.141s-.394-2.025-.394-4.5c0-6.057-2.443-8.5-8.5-8.5-3.167 0-5.093.593-6.5 2-1.947 1.947-2 3.333-2 52.045v50.046l2.58 2.579c2.282 2.283 3.116 2.507 7.25 1.949 2.604-.352 5.223-1.377 5.92-2.316.928-1.251 1.254-8.785 1.267-29.244.02-30.453.932-37.883 5.639-45.915 4.706-8.03 9.673-11.98 18.276-14.532 2.987-.887 7.937-1.626 11-1.644 7.308-.042 9.227-1.568 9.828-7.817.695-7.233-1.552-9.174-10.51-9.08-3.712.039-9.45.853-12.75 1.808m87.145-.295c-17.538 4.246-32.664 18.357-38.83 36.226-3.327 9.638-3.327 27.742 0 37.38 11.505 33.339 50.181 47.403 80.685 29.341 8.41-4.98 15.5-12.716 15.5-16.912 0-4.426-3.145-7.619-7.506-7.619-2.661 0-4.597 1.039-8.658 4.646-15.187 13.488-36.249 14.688-52.149 2.972-4.176-3.078-9.102-10.274-11.524-16.837l-2.112-5.719 42.44-.281c49.865-.33 46.07.627 45.905-11.574-.459-34.083-31.702-59.381-63.751-51.623M408 631.732c-4.467.805-6 3.084-6 8.921v5.344l-4.852-3.486c-26.668-19.159-63.184-9.702-76.722 19.871-9.986 21.812-5.642 48.069 10.643 64.319 17.641 17.604 47.702 19.992 66.122 5.253 2.031-1.625 3.943-2.954 4.25-2.954.308 0 .559 1.325.559 2.944 0 4.355 3.688 8.07 8.676 8.739 3.563.478 4.548.184 6.748-2.016l2.576-2.576v-50.046c0-48.712-.053-50.098-2-52.045-1.1-1.1-2.638-2-3.418-2s-2.018-.162-2.75-.36-2.457-.156-3.832.092m274.655 1.097c-2.062 2.278-2.206 10.034-.237 12.73 1.336 1.829 3.041 1.958 29.5 2.236 15.445.162 28.082.529 28.082.817s-6.907 10.055-15.349 21.705c-15.834 21.854-35.278 49.171-39.976 56.165-4.421 6.581-3.18 12.6 2.912 14.129 1.346.338 11.777.354 23.18.035s28.688-.594 38.412-.613c20.421-.038 20.821-.191 20.821-7.949 0-8.197.731-8.015-33.253-8.319l-29.63-.265 15.047-21c8.276-11.55 21.974-30.225 30.441-41.5 16.258-21.652 17.386-24.009 13.395-28-1.933-1.933-3.333-2-41.845-2-37.331 0-39.949.115-41.5 1.829m127.418.806c-2.033 2.584-2.073 3.579-2.073 51.453 0 34.595.334 49.552 1.147 51.336 1.388 3.045 6.659 4.997 10.949 4.055 5.973-1.312 6.052-2.101 5.711-56.477-.292-46.34-.403-48.898-2.212-50.897-1.43-1.58-3.096-2.105-6.677-2.105-3.965 0-5.124.446-6.845 2.635M592.27 647.02c-13.65 2.804-25.658 14.617-28.695 28.23l-.613 2.75H634v-2.462c0-9.417-10.09-22.567-20.203-26.331-6.46-2.404-15.835-3.356-21.527-2.187m-235.77 3.307c-27.02 8.932-33.899 46.485-12.155 66.358 16.168 14.776 45.252 11.154 55.621-6.927 3.011-5.251 3.015-5.281 3.003-21.258-.011-13.944-.275-16.578-2.051-20.5-2.811-6.208-10.773-13.421-17.73-16.063-7.086-2.691-20.897-3.525-26.688-1.61"/></svg>